<?xml version="1.0" encoding="UTF-8"?>
<svg xmlns="http://www.w3.org/2000/svg" version="1.1" width="32px" height="32px" style="shape-rendering:geometricPrecision; text-rendering:geometricPrecision; image-rendering:optimizeQuality; fill-rule:evenodd; clip-rule:evenodd" xmlns:xlink="http://www.w3.org/1999/xlink">
<g><path style="opacity:0.992" fill="#e40046" d="M 0.5,-0.5 C 10.5,-0.5 20.5,-0.5 30.5,-0.5C 30.5,0.166667 30.8333,0.5 31.5,0.5C 31.5,10.5 31.5,20.5 31.5,30.5C 30.8333,30.5 30.5,30.8333 30.5,31.5C 20.5,31.5 10.5,31.5 0.5,31.5C 0.5,30.8333 0.166667,30.5 -0.5,30.5C -0.5,20.5 -0.5,10.5 -0.5,0.5C 0.166667,0.5 0.5,0.166667 0.5,-0.5 Z"/></g>
<g><path style="opacity:1" fill="#fefffe" d="M 12.5,2.5 C 14.1667,2.5 15.8333,2.5 17.5,2.5C 17.5,4.16667 17.5,5.83333 17.5,7.5C 15.8333,7.5 14.1667,7.5 12.5,7.5C 12.5,5.83333 12.5,4.16667 12.5,2.5 Z"/></g>
<g><path style="opacity:1" fill="#e40046" d="M 13.5,3.5 C 14.5,3.5 15.5,3.5 16.5,3.5C 16.5,4.5 16.5,5.5 16.5,6.5C 15.5,6.5 14.5,6.5 13.5,6.5C 13.5,5.5 13.5,4.5 13.5,3.5 Z"/></g>
<g><path style="opacity:1" fill="#fefffe" d="M 7.5,5.5 C 8.83333,5.5 10.1667,5.5 11.5,5.5C 11.5,6.83333 11.5,8.16667 11.5,9.5C 10.1667,9.5 8.83333,9.5 7.5,9.5C 7.5,8.16667 7.5,6.83333 7.5,5.5 Z"/></g>
<g><path style="opacity:1" fill="#e40046" d="M 8.5,6.5 C 10.337,6.63945 10.6704,7.30612 9.5,8.5C 8.70245,8.04311 8.36912,7.37644 8.5,6.5 Z"/></g>
<g><path style="opacity:1" fill="#fefffe" d="M 18.5,7.5 C 20.5,7.5 22.5,7.5 24.5,7.5C 24.5,9.5 24.5,11.5 24.5,13.5C 22.5,13.5 20.5,13.5 18.5,13.5C 18.5,11.5 18.5,9.5 18.5,7.5 Z"/></g>
<g><path style="opacity:1" fill="#e40046" d="M 19.5,8.5 C 20.8333,8.5 22.1667,8.5 23.5,8.5C 23.5,9.83333 23.5,11.1667 23.5,12.5C 22.1667,12.5 20.8333,12.5 19.5,12.5C 19.5,11.1667 19.5,9.83333 19.5,8.5 Z"/></g>
<g><path style="opacity:1" fill="#fefefd" d="M 10.5,17.5 C 8.95819,16.6993 7.29152,16.366 5.5,16.5C 5.5,14.5 5.5,12.5 5.5,10.5C 7.5,10.5 9.5,10.5 11.5,10.5C 11.702,12.9496 11.3686,15.283 10.5,17.5 Z"/></g>
<g><path style="opacity:1" fill="#e40046" d="M 6.5,11.5 C 7.83333,11.5 9.16667,11.5 10.5,11.5C 10.5,12.8333 10.5,14.1667 10.5,15.5C 9.16667,15.5 7.83333,15.5 6.5,15.5C 6.5,14.1667 6.5,12.8333 6.5,11.5 Z"/></g>
<g><path style="opacity:1" fill="#ffeeec" d="M 22.5,14.5 C 23.5,14.5 24.5,14.5 25.5,14.5C 25.5,15.5 25.5,16.5 25.5,17.5C 24.5,17.5 23.5,17.5 22.5,17.5C 22.5,16.5 22.5,15.5 22.5,14.5 Z"/></g>
<g><path style="opacity:1" fill="#fef1f0" d="M 10.5,17.5 C 12.0257,16.8953 13.0257,15.7286 13.5,14C 12.5939,12.3005 12.2606,10.4672 12.5,8.5C 14.1667,8.5 15.8333,8.5 17.5,8.5C 17.5,10.1667 17.5,11.8333 17.5,13.5C 16.5,13.5 15.5,13.5 14.5,13.5C 13.5508,16.2075 13.5508,18.8742 14.5,21.5C 15.4742,19.2573 15.8076,16.924 15.5,14.5C 17.5,14.5 19.5,14.5 21.5,14.5C 21.5,16.5 21.5,18.5 21.5,20.5C 15.0714,20.9585 14.0714,23.4585 18.5,28C 17.1667,28.6667 15.8333,28.6667 14.5,28C 12.6738,24.6882 11.3405,21.1882 10.5,17.5 Z"/></g>
<g><path style="opacity:1" fill="#e40046" d="M 13.5,9.5 C 14.5,9.5 15.5,9.5 16.5,9.5C 16.5,10.5 16.5,11.5 16.5,12.5C 15.5,12.5 14.5,12.5 13.5,12.5C 13.5,11.5 13.5,10.5 13.5,9.5 Z"/></g>
<g><path style="opacity:1" fill="#e40046" d="M 16.5,15.5 C 17.8333,15.5 19.1667,15.5 20.5,15.5C 20.5,16.8333 20.5,18.1667 20.5,19.5C 19.1667,19.5 17.8333,19.5 16.5,19.5C 16.5,18.1667 16.5,16.8333 16.5,15.5 Z"/></g>
</svg>
