<svg width="560" height="95" viewBox="0 0 560 95" xmlns="http://www.w3.org/2000/svg" role="img" aria-label="Bückeburg Archive Research">
  <title>Bückeburg Archive Research</title>
  <desc>Transparent logo with orange braces and dark text reading Bückeburg Archive Research.</desc>
  <path d="M25.2646 87.5742C20.0596 86.1061 16.3493 83.7705 14.1338 80.5674C11.945 77.3643 10.8506 73.4938 10.8506 68.9561V60.748C10.8506 57.7585 10.1699 55.4362 8.80859 53.7812C7.44727 52.0996 5.35189 51.2588 2.52246 51.2588V45.373C5.35189 45.373 7.44727 44.5589 8.80859 42.9307C10.1699 41.2757 10.8506 38.9401 10.8506 35.9238V27.6758C10.8506 23.1113 11.945 19.2409 14.1338 16.0645C16.3493 12.8613 20.0596 10.5257 25.2646 9.05762L26.8662 13.7422C23.93 14.6764 21.8346 16.3581 20.5801 18.7871C19.3522 21.1895 18.7383 24.1523 18.7383 27.6758V35.9238C18.7383 38.7266 18.1777 41.1956 17.0566 43.3311C15.9355 45.4665 14.2406 47.1348 11.9717 48.3359C14.2406 49.5638 15.9355 51.2588 17.0566 53.4209C18.1777 55.5563 18.7383 57.9987 18.7383 60.748V68.9561C18.7383 72.4795 19.3522 75.429 20.5801 77.8047C21.8346 80.207 23.93 81.8887 26.8662 82.8496L25.2646 87.5742Z" fill="#F37726"/>
  <g transform="translate(385.575 0)">
    <path d="M151.683 87.5742L150.081 82.8496C152.964 81.8887 155.033 80.207 156.287 77.8047C157.542 75.429 158.169 72.4795 158.169 68.9561V60.748C158.169 57.8919 158.77 55.3962 159.971 53.2607C161.172 51.1253 163.027 49.4837 165.536 48.3359C163.027 47.2415 161.172 45.6266 159.971 43.4912C158.77 41.3558 158.169 38.8333 158.169 35.9238V27.6758C158.169 24.1523 157.542 21.1895 156.287 18.7871C155.033 16.3581 152.964 14.6764 150.081 13.7422L151.683 9.05762C156.861 10.5257 160.545 12.8613 162.733 16.0645C164.949 19.2409 166.057 23.1113 166.057 27.6758V35.9238C166.057 38.9401 166.737 41.2757 168.099 42.9307C169.46 44.5589 171.569 45.373 174.425 45.373V51.2588C171.569 51.2588 169.46 52.0996 168.099 53.7812C166.737 55.4362 166.057 57.7585 166.057 60.748V68.9561C166.057 73.4938 164.949 77.3643 162.733 80.5674C160.545 83.7705 156.861 86.1061 151.683 87.5742Z" fill="#F37726"/>
  </g>
  <text x="280" y="56"
        text-anchor="middle"
        xml:space="preserve"
        fill="#4F4F4F"
        stroke="none"
        style="fill:#4F4F4F !important; color:#4F4F4F !important; font-family:'Roboto Slab','Roboto Slab Regular','Noto Serif',serif; font-size:30px; font-weight:400; letter-spacing:0;">
    Bückeburg Archive Research
  </text>
</svg>
