<svg width="812" height="100" viewBox="0 0 812 100" fill="none" xmlns="http://www.w3.org/2000/svg" role="img" aria-label="Bückeburg Archive Research logo">
  <path d="M25.2646 87.5742C20.0596 86.1061 16.3493 83.7705 14.1338 80.5674C11.945 77.3643 10.8506 73.4938 10.8506 68.9561V60.748C10.8506 57.7585 10.1699 55.4362 8.80859 53.7812C7.44727 52.0996 5.35189 51.2588 2.52246 51.2588V45.373C5.35189 45.373 7.44727 44.5589 8.80859 42.9307C10.1699 41.2757 10.8506 38.9401 10.8506 35.9238V27.6758C10.8506 23.1113 11.945 19.2409 14.1338 16.0645C16.3493 12.8613 20.0596 10.5257 25.2646 9.05762L26.8662 13.7422C23.93 14.6764 21.8346 16.3581 20.5801 18.7871C19.3522 21.1895 18.7383 24.1523 18.7383 27.6758V35.9238C18.7383 38.7266 18.1777 41.1956 17.0566 43.3311C15.9355 45.4665 14.2406 47.1348 11.9717 48.3359C14.2406 49.5638 15.9355 51.2588 17.0566 53.4209C18.1777 55.5563 18.7383 57.9987 18.7383 60.748V68.9561C18.7383 72.4795 19.3522 75.429 20.5801 77.8047C21.8346 80.207 23.93 81.8887 26.8662 82.8496L25.2646 87.5742Z" fill="#F37726"/>
  <g fill="#616161" transform="translate(35 67) scale(0.02636719 -0.02636719)">
    <path d="M709 1456H81V1329L244 1301V154L81 126V0H771C1067 0 1253 144 1253 411C1253 590 1145 738 970 775C1105 824 1194 933 1194 1062C1194 1325 1013 1456 709 1456ZM441 837V1301H709C896 1301 997 1223 997 1066C997 925 901 837 760 837ZM441 683H801C973 683 1055 580 1055 409C1055 246 951 154 771 154H441Z" transform="translate(0.000 0)"/>
    <path d="M911 1279V1479H693V1279ZM441 1279V1479H223V1279ZM867 160 880 0H1181V126L1057 154V1082H715V955L860 927V302C813 198 723 139 583 139C439 139 373 211 373 442V1082H52V955L176 927V444C176 125 315 -21 550 -21C690 -21 799 44 867 160Z" transform="translate(1338.000 0)"/>
    <path d="M558 133C380 133 271 283 271 520V562C271 775 390 947 566 947C658 947 726 917 771 870L805 681H959L954 941C865 1041 734 1102 559 1102C256 1102 74 870 74 562V520C74 199 264 -21 559 -21C829 -21 973 146 984 333L982 339H805C785 211 691 133 558 133Z" transform="translate(2582.000 0)"/>
    <path d="M64 1433 227 1405V154L64 126V0H587V126L424 154V499H554L866 143L869 139L759 126V0H1248V126L1092 150L716 585L1023 929L1162 955V1082H702V955L818 942L813 936L550 656H424V1560H64Z" transform="translate(3645.000 0)"/>
    <path d="M567 -21C746 -21 873 37 950 112L873 240C800 173 700 133 567 133C384 133 279 282 275 490L278 495H980V618C980 911 828 1102 537 1102C286 1102 74 872 74 564V520C74 200 266 -21 567 -21ZM537 947C700 947 783 830 783 675V649H284L282 654C303 822 405 947 537 947Z" transform="translate(4932.000 0)"/>
    <path d="M1071 500V521C1071 869 914 1102 647 1102C512 1102 412 1050 344 954V1560H-16V1433L147 1405V0H317L335 139C404 34 508 -21 649 -21C912 -21 1071 188 1071 500ZM873 521V500C873 283 784 139 599 139C478 139 393 202 344 302V780C393 879 476 942 597 942C784 942 873 770 873 521Z" transform="translate(5991.000 0)"/>
    <path d="M867 160 880 0H1181V126L1057 154V1082H715V955L860 927V302C813 198 723 139 583 139C439 139 373 211 373 442V1082H52V955L176 927V444C176 125 315 -21 550 -21C690 -21 799 44 867 160Z" transform="translate(7136.000 0)"/>
    <path d="M72 126V0H595V126L432 154V767C470 857 541 917 645 911L782 903L808 1086C789 1093 739 1102 698 1102C582 1102 491 1036 430 925L428 944L411 1082H72V955L235 927V154Z" transform="translate(8381.000 0)"/>
    <path d="M74 521V500C74 189 236 -21 501 -21C629 -21 727 26 798 117V14C798 -169 719 -271 543 -271C448 -271 340 -243 267 -204L216 -357C308 -406 441 -437 545 -437C833 -437 995 -266 995 14V927L1129 956V1082H829L811 946C742 1047 639 1102 503 1102C235 1102 74 869 74 521ZM271 500V521C271 768 364 942 552 942C667 942 747 884 798 792V294C746 195 669 139 550 139C362 139 271 283 271 500Z" transform="translate(9235.000 0)"/>
    <path d="M70 126V0H487V126L377 145L476 413H1059L1155 145L1045 126V0H1463V126L1356 141L856 1456H687L178 141ZM537 578 755 1170 767 1203H773L785 1170L999 578Z" transform="translate(10897.000 0)"/>
    <path d="M72 126V0H595V126L432 154V767C470 857 541 917 645 911L782 903L808 1086C789 1093 739 1102 698 1102C582 1102 491 1036 430 925L428 944L411 1082H72V955L235 927V154Z" transform="translate(12430.000 0)"/>
    <path d="M558 133C380 133 271 283 271 520V562C271 775 390 947 566 947C658 947 726 917 771 870L805 681H959L954 941C865 1041 734 1102 559 1102C256 1102 74 870 74 562V520C74 199 264 -21 559 -21C829 -21 973 146 984 333L982 339H805C785 211 691 133 558 133Z" transform="translate(13284.000 0)"/>
    <path d="M49 126V0H572V126L409 154V799C466 887 558 942 666 942C818 942 895 859 895 680V154L732 126V0H1255V126L1092 154V678C1092 966 958 1102 726 1102C594 1102 484 1042 409 938V1560H49V1433L212 1405V154Z" transform="translate(14347.000 0)"/>
    <path d="M427 1349V1560H220V1349ZM67 126V0H590V126L427 154V1082H67V955L230 927V154Z" transform="translate(15662.000 0)"/>
    <path d="M480 955V1082H26V955L138 940L523 0H696L1062 940L1176 955V1082H723V955L868 935L645 319L613 232H607L579 319L339 935Z" transform="translate(16314.000 0)"/>
    <path d="M567 -21C746 -21 873 37 950 112L873 240C800 173 700 133 567 133C384 133 279 282 275 490L278 495H980V618C980 911 828 1102 537 1102C286 1102 74 872 74 564V520C74 200 266 -21 567 -21ZM537 947C700 947 783 830 783 675V649H284L282 654C303 822 405 947 537 947Z" transform="translate(17520.000 0)"/>
    <path d="M720 1455H81V1329L244 1301V154L81 126V0H604V126L441 154V650H757C912 650 1011 546 1011 387V274C1011 122 1070 0 1223 0H1329V129L1281 135C1229 143 1208 183 1208 272V389C1208 561 1143 681 984 733C1131 796 1212 909 1212 1050C1212 1309 1037 1455 720 1455ZM441 805V1301H720C921 1301 1015 1205 1015 1052C1015 891 920 805 700 805Z" transform="translate(19088.000 0)"/>
    <path d="M567 -21C746 -21 873 37 950 112L873 240C800 173 700 133 567 133C384 133 279 282 275 490L278 495H980V618C980 911 828 1102 537 1102C286 1102 74 872 74 564V520C74 200 266 -21 567 -21ZM537 947C700 947 783 830 783 675V649H284L282 654C303 822 405 947 537 947Z" transform="translate(20484.000 0)"/>
    <path d="M890 752 880 999C793 1062 681 1102 517 1102C275 1102 112 968 112 793C112 625 231 531 493 471C677 429 736 372 736 287C736 196 672 127 512 127C431 127 365 140 290 171L253 326H104L106 69C249 7 367 -21 512 -21C803 -21 933 118 933 301C933 461 829 567 528 638C346 681 310 723 310 799C310 886 394 950 517 950C599 950 663 930 710 896L742 752Z" transform="translate(21543.000 0)"/>
    <path d="M567 -21C746 -21 873 37 950 112L873 240C800 173 700 133 567 133C384 133 279 282 275 490L278 495H980V618C980 911 828 1102 537 1102C286 1102 74 872 74 564V520C74 200 266 -21 567 -21ZM537 947C700 947 783 830 783 675V649H284L282 654C303 822 405 947 537 947Z" transform="translate(22565.000 0)"/>
    <path d="M770 0H1053V126L948 137C945 164 945 190 945 218V739C945 972 787 1102 524 1102C367 1102 236 1061 139 982V734H291L312 885C366 924 430 947 521 947C665 947 748 872 748 741V635H555C256 635 79 499 79 294C79 94 199 -21 424 -21C553 -21 673 52 749 149C752 102 758 59 770 0ZM453 144C334 144 276 195 276 290C276 397 367 500 548 500H748V304C701 216 584 144 453 144Z" transform="translate(23624.000 0)"/>
    <path d="M72 126V0H595V126L432 154V767C470 857 541 917 645 911L782 903L808 1086C789 1093 739 1102 698 1102C582 1102 491 1036 430 925L428 944L411 1082H72V955L235 927V154Z" transform="translate(24756.000 0)"/>
    <path d="M558 133C380 133 271 283 271 520V562C271 775 390 947 566 947C658 947 726 917 771 870L805 681H959L954 941C865 1041 734 1102 559 1102C256 1102 74 870 74 562V520C74 199 264 -21 559 -21C829 -21 973 146 984 333L982 339H805C785 211 691 133 558 133Z" transform="translate(25610.000 0)"/>
    <path d="M49 126V0H572V126L409 154V799C466 887 558 942 666 942C818 942 895 859 895 680V154L732 126V0H1255V126L1092 154V678C1092 966 958 1102 726 1102C594 1102 484 1042 409 938V1560H49V1433L212 1405V154Z" transform="translate(26673.000 0)"/>
  </g>
  <path d="M149.683 87.5742L148.081 82.8496C150.964 81.8887 153.033 80.207 154.287 77.8047C155.542 75.429 156.169 72.4795 156.169 68.9561V60.748C156.169 57.8919 156.77 55.3962 157.971 53.2607C159.172 51.1253 161.027 49.4837 163.536 48.3359C161.027 47.2415 159.172 45.6266 157.971 43.4912C156.77 41.3558 156.169 38.8333 156.169 35.9238V27.6758C156.169 24.1523 155.542 21.1895 154.287 18.7871C153.033 16.3581 150.964 14.6764 148.081 13.7422L149.683 9.05762C154.861 10.5257 158.545 12.8613 160.733 16.0645C162.949 19.2409 164.057 23.1113 164.057 27.6758V35.9238C164.057 38.9401 164.737 41.2757 166.099 42.9307C167.46 44.5589 169.569 45.373 172.425 45.373V51.2588C169.569 51.2588 167.46 52.0996 166.099 53.7812C164.737 55.4362 164.057 57.7585 164.057 60.748V68.9561C164.057 73.4938 162.949 77.3643 160.733 80.5674C158.545 83.7705 154.861 86.1061 149.683 87.5742Z" fill="#F37726" transform="translate(631.302 0)"/>
</svg>
